# xmcd
#
# Track frame offsets: 
#        150
#        24363
#        41400
#        58888
#        78893
#        98313
#        112900
#        128903
#        148850
#        163450
#        174675
#
# Disc length: 2652 seconds
#
# Revision: 4
# Processed by: cddbd v1.5.2PL0 Copyright (c) Steve Scherf et al.
# Submitted via: ExactAudioCopyFreeDBPlugin 1.0
#
DISCID=8c0a5a0b
DTITLE=谭咏麟 - 霧之戀24K GOLD
DYEAR=2014
DGENRE=Pop
TTITLE0=傲骨
TTITLE1=愛的替身
TTITLE2=亮了紅燈
TTITLE3=霧之戀
TTITLE4=午夜麗人
TTITLE5=創造命運
TTITLE6=愛火 (& 張淑玲)
TTITLE7=幻影
TTITLE8=火一般眼波
TTITLE9=愛是這樣甜
TTITLE10=但願不改變
EXTD=
EXTT0=
EXTT1=
EXTT2=
EXTT3=
EXTT4=
EXTT5=
EXTT6=
EXTT7=
EXTT8=
EXTT9=
EXTT10=
PLAYORDER=
